/* XPM */
static char *sachi_x1[] = {
/* columns rows colors chars-per-pixel */
"32 32 9 1 ",
"  c black",
". c #221859",
"X c #3F3A5A",
"o c #2A3970",
"O c #FF004D",
"+ c #FF006E",
"@ c #FFD800",
"# c #455EB7",
"$ c None",
/* pixels */
"$$$$$$$$$$$$$$$$$$$$$$$$$$$$$$$$",
"$$$$$$$$$$$$$$$$$$$$$$$$$$$$$$$$",
"$$$$$$$$$$$$$$$$$$$$$$$$$$$$$$$$",
"$$$$$$$$$$$$$$$$$$$$$$$$$$$$$$$$",
"$$$$$$$$$$$$$$$$$$$$$$$$$$$$$$$$",
"$$$$$$$$$$$$..$$$$$$$$$$$$$$$$$$",
"$$$$$$$$$$$$X.$$$$$$$$$$$$$$$$$$",
"$$$$$$$$$$$XX..$$$$$$$$$$$$$$$$$",
"$$$$$$$$$$$XX....$$$$$$$$$$$$$$$",
"$$$$$$$$$$XXX.....$$$$$$$$$$$$$$",
"$$$$$$$$$$XX@@@@..$$$$$$$$$$$$$$",
"$$$$$$$$$$OO@OO@OOO$$$$$$$$$$$$$",
"$$$$$$$$$OOO@@@@OOO$$$$..$$$$$$$",
"$$$$$XX$OOO..............$$$$$$$",
"$$$$$XXXXX.............$$$$$$$$$",
"$$$$$$XXXX.........o $$$$$$$$$$$",
"$$$$$$$XX...##ooooooo $$$$$$$$$$",
"$$$$$$$$$ #### oo ooo $$$$$$$$$$",
"$$$$$$$$$ #### oo ooo $$$$$$$$$$",
"$$$$$$$$$ ####ooooooo $$$$$$$$$$",
"$$$$$$$$$ ####ooooooo $$$$$$$$$$",
"$$$$$$$$$$ ###o  ooo $$$$$$$$$$$",
"$$$$$$$  $ ###oooooo $  $$$$$$$$",
"$$$$$$$  $$  #oooo  $$  $$$$$$$$",
"$$$$$$$$$$ ++     ++ $$$$$$$$$$$",
"$$$$$$$$$$    $$$    $$$$$$$$$$$",
"$$$$$$$$$$$$$$$$$$$$$$$$$$$$$$$$",
"$$$$$$$$$$$$$$$$$$$$$$$$$$$$$$$$",
"$$$$$$$$$$$$$$$$$$$$$$$$$$$$$$$$",
"$$$$$$$$$$$$$$$$$$$$$$$$$$$$$$$$",
"$$$$$$$$$$$$$$$$$$$$$$$$$$$$$$$$",
"$$$$$$$$$$$$$$$$$$$$$$$$$$$$$$$$"
};